<?xml version="1.0" encoding="UTF-8" standalone="no"?>
<svg
   width="60"
   height="60"
   viewBox="0 0 60 60"
   fill="none"
   version="1.1"
   id="svg10"
   sodipodi:docname="Button_sq.svg"
   inkscape:version="1.4.4 (dcaf3e7d9e, 2026-05-05)"
   xmlns:inkscape="http://www.inkscape.org/namespaces/inkscape"
   xmlns:sodipodi="http://sodipodi.sourceforge.net/DTD/sodipodi-0.dtd"
   xmlns="http://www.w3.org/2000/svg"
   xmlns:svg="http://www.w3.org/2000/svg">
  <defs
     id="defs10" />
  <sodipodi:namedview
     id="namedview10"
     pagecolor="#505050"
     bordercolor="#ffffff"
     borderopacity="1"
     inkscape:showpageshadow="0"
     inkscape:pageopacity="0"
     inkscape:pagecheckerboard="1"
     inkscape:deskcolor="#505050"
     inkscape:zoom="6.2017932"
     inkscape:cx="-11.045193"
     inkscape:cy="45.06761"
     inkscape:window-width="1920"
     inkscape:window-height="1052"
     inkscape:window-x="0"
     inkscape:window-y="0"
     inkscape:window-maximized="1"
     inkscape:current-layer="svg10" />
  <path
     d="M 0,20 C 0,12.268 6.26801,6 14,6 h 32 c 7.732,0 14,6.268 14,14 v 26 c 0,7.732 -6.268,14 -14,14 H 14 C 6.26801,60 0,53.732 0,46 Z"
     fill="#282b30"
     id="path1-9"
     style="display:inline" />
  <path
     d="M 0,14 C 0,6.27 6.27,0 14,0 h 32 c 7.73,0 14,6.27 14,14 v 26 c 0,7.73 -6.27,14 -14,14 H 14 C 6.27,54 0,47.73 0,40 Z"
     fill="#393e46"
     id="path4-6"
     style="display:inline" />
  <path
     d="m 1,47 c 0,7.1797 5.8203,13 13,13 V 45 H 1 Z"
     fill="#22252a"
     id="path2-3"
     style="display:inline" />
  <path
     d="m 47,60 c 6.883889,0 12.463867,-5.8203 12.463867,-13 V 45 H 47 Z"
     fill="#22252a"
     id="path3-6"
     style="display:inline;stroke-width:0.979162" />
  <path
     d="m 1,40 c 0,7.1797 5.8203,13 13,13 V 40 Z"
     fill="#434851"
     id="path5-2"
     style="display:inline"
     inkscape:label="qc" />
  <path
     d="m 47,53 c 7.18,0 13,-5.8203 13,-13 H 47 Z"
     fill="#434851"
     id="path6-6"
     style="display:inline"
     inkscape:label="qc" />
  <path
     d="M 60,13 C 60,5.8203 54.18,0 47,0 v 13 z"
     fill="#434851"
     id="path7-1"
     style="display:inline"
     inkscape:label="qc" />
  <path
     d="M 0,13 C 0,5.8203 5.8203,0 13,0 v 13 z"
     fill="#434851"
     id="path8-8"
     style="display:inline"
     inkscape:label="qc" />
  <rect
     x="-55.5"
     y="-18.5"
     width="59"
     height="59"
     rx="13.5"
     stroke="#15161c"
     id="rect3-0"
     style="display:inline"
     transform="translate(56,19)" />
  <path
     d="M 6,16 C 6,10.48 10.48,6 16,6 h 28 c 5.52,0 10,4.48 10,10 v 22 c 0,5.52 -4.48,10 -10,10 H 16 C 10.48,48 6,43.52 6,38 Z"
     fill="#282b30"
     stroke="#50565f"
     stroke-linecap="round"
     id="path9-7"
     style="display:inline" />
  <path
     d="m 14,0.5 h 32 c 7.46,0 13.5,6.04 13.5,13.5 v 26 c 0,7.46 -6.04,13.5 -13.5,13.5 H 14 C 6.54,53.5 0.5,47.46 0.5,40 V 14 13.65 C 0.69,6.36 6.66,0.5 14,0.5 Z"
     stroke="#15161c"
     id="path10-9"
     style="display:inline" />
</svg>
