<svg width="154" height="54" viewBox="0 0 154 54" fill="none" xmlns="http://www.w3.org/2000/svg">
<path d="M0 14C0 6.26801 6.26801 0 14 0H140C147.732 0 154 6.26801 154 14V40C154 47.732 147.732 54 140 54H14C6.26801 54 0 47.732 0 40V14Z" fill="#393E46"/>
<path d="M1 40C1 47.1797 6.8203 53 14 53V40H1Z" fill="#434851"/>
<path d="M140 53C147.18 53 153 47.1797 153 40H140V53Z" fill="#434851"/>
<path d="M153 14C153 6.8203 147.18 1 140 1V14H153Z" fill="#434851"/>
<path d="M1 14C1 6.8203 6.8203 1 14 1V14H1Z" fill="#434851"/>
<path d="M6 16C6 10.4772 10.4772 6 16 6H138C143.523 6 148 10.4772 148 16V38C148 43.5228 143.523 48 138 48H16C10.4772 48 6 43.5228 6 38V16Z" fill="#282B30" stroke="#50565F" stroke-linecap="round"/>
<path d="M14 0.5H140C147.456 0.5 153.5 6.54416 153.5 14V40C153.5 47.4558 147.456 53.5 140 53.5H14C6.54416 53.5 0.5 47.4558 0.5 40V14L0.504883 13.6514C0.689805 6.35666 6.66072 0.5 14 0.5Z" stroke="#15161C"/>
</svg>
